PathFileType	4	(X/Y/Z)	 2.2Hzlow3min.trc
DataRate	CameraRate	NumFrames	NumMarkers	Units	OrigDataRate	OrigDataStartFrame	OrigNumFrames
200	200	8	35	m	200	751	1000
Frame#	Time	C7			LSH			RSH			MAN			RASI			LASI			HIPR			HIPL			RPSI			LPSI			COX			RTHI1			RTHI2			RTHI3			RTHI4			RSHA1			RSHA2			RSHA3			RSHA4			RHEEL			RMET5			RMET1			RTOE			LTHI1			LTHI2			LTHI3			LTHI4			LSHA1			LSHA2			LSHA3			LSHA4			LHEEL			LMET5			LMET1			LTOE			
		X1	Y1	Z1	X2	Y2	Z2	X3	Y3	Z3	X4	Y4	Z4	X5	Y5	Z5	X6	Y6	Z6	X7	Y7	Z7	X8	Y8	Z8	X9	Y9	Z9	X10	Y10	Z10	X11	Y11	Z11	X12	Y12	Z12	X13	Y13	Z13	X14	Y14	Z14	X15	Y15	Z15	X16	Y16	Z16	X17	Y17	Z17	X18	Y18	Z18	X19	Y19	Z19	X20	Y20	Z20	X21	Y21	Z21	X22	Y22	Z22	X23	Y23	Z23	X24	Y24	Z24	X25	Y25	Z25	X26	Y26	Z26	X27	Y27	Z27	X28	Y28	Z28	X29	Y29	Z29	X30	Y30	Z30	X31	Y31	Z31	X32	Y32	Z32	X33	Y33	Z33	X34	Y34	Z34	X35	Y35	Z35	
751	3.7550	-0.266319	1.575983	-0.542391	-0.217702	1.542832	-0.780434	-0.214926	1.539691	-0.339757	-0.126049	1.508848	-0.558188	-0.135373	1.049799	-0.440308	-0.138270	1.045091	-0.667943	-0.195152	1.111378	-0.389415	-0.214071	1.110475	-0.719722	-0.320774	1.079293	-0.492513	-0.324805	1.078258	-0.602151	-0.328745	1.084136	-0.546266	-0.185390	0.849596	-0.353269	-0.159855	0.796548	-0.340360	-0.099953	0.818014	-0.352587	-0.118211	0.875237	-0.366849	-0.245541	0.314601	-0.341056	-0.264956	0.277341	-0.351648	-0.207811	0.256257	-0.352409	-0.193219	0.293148	-0.346051	-0.380668	0.064102	-0.415026	-0.202386	0.024503	-0.333339	-0.155546	0.042913	-0.426535	-0.122810	0.030708	-0.424260	-0.181329	0.798963	-0.761573	-0.149387	0.746998	-0.772077	-0.090914	0.775691	-0.768104	-0.115166	0.829078	-0.757820	-0.260630	0.300665	-0.761576	-0.279434	0.265930	-0.753605	-0.221625	0.240886	-0.755884	-0.209672	0.283362	-0.765034	-0.387679	0.067434	-0.690675	-0.212920	0.025444	-0.784685	-0.165806	0.042699	-0.705994	-0.130086	0.030585	-0.709766	
752	3.7600	-0.266188	1.576043	-0.542375	-0.217390	1.543160	-0.780488	-0.214477	1.539873	-0.339739	-0.125851	1.508836	-0.558265	-0.135055	1.049884	-0.440226	-0.138176	1.045248	-0.667992	-0.195113	1.111511	-0.389265	-0.214661	1.111049	-0.719453	-0.320532	1.079376	-0.492259	-0.324663	1.078276	-0.601847	-0.328543	1.084210	-0.546008	-0.184972	0.849877	-0.353065	-0.159466	0.796816	-0.340165	-0.099573	0.818190	-0.352656	-0.117801	0.875398	-0.366943	-0.245390	0.314674	-0.340878	-0.264929	0.277500	-0.351335	-0.207726	0.256397	-0.352158	-0.193113	0.293267	-0.345827	-0.380656	0.064173	-0.414728	-0.202332	0.024454	-0.333238	-0.155567	0.042920	-0.426490	-0.122833	0.030702	-0.424281	-0.180936	0.799169	-0.761529	-0.148858	0.747269	-0.771940	-0.090458	0.776028	-0.767610	-0.114819	0.829393	-0.757386	-0.260541	0.300687	-0.761523	-0.279368	0.265952	-0.753565	-0.221558	0.240896	-0.755777	-0.209582	0.283379	-0.764902	-0.387688	0.067407	-0.690808	-0.212876	0.025442	-0.784704	-0.165788	0.042686	-0.705980	-0.130070	0.030582	-0.709746	
753	3.7650	-0.266057	1.576475	-0.542368	-0.217136	1.543861	-0.780547	-0.214057	1.540429	-0.339728	-0.125652	1.509185	-0.558354	-0.134585	1.050328	-0.440176	-0.137913	1.045755	-0.668014	-0.194877	1.112000	-0.389124	-0.215907	1.111889	-0.720335	-0.320130	1.079827	-0.491992	-0.324312	1.078673	-0.601600	-0.328183	1.084618	-0.545758	-0.184687	0.850417	-0.352909	-0.159314	0.797291	-0.340011	-0.099373	0.818485	-0.352661	-0.117466	0.875719	-0.366966	-0.245566	0.314653	-0.340829	-0.265209	0.277553	-0.351120	-0.207897	0.256522	-0.351946	-0.193314	0.293401	-0.345651	-0.380662	0.064135	-0.414513	-0.202296	0.024416	-0.333148	-0.155606	0.042926	-0.426451	-0.122875	0.030697	-0.424293	-0.180701	0.799646	-0.761440	-0.148585	0.747755	-0.771783	-0.090206	0.776487	-0.767172	-0.114572	0.829859	-0.756988	-0.260778	0.300691	-0.761517	-0.279584	0.265935	-0.753576	-0.221744	0.240934	-0.755720	-0.209799	0.283436	-0.764817	-0.387779	0.067293	-0.691017	-0.212857	0.025435	-0.784750	-0.165832	0.042673	-0.705974	-0.130109	0.030574	-0.709741	
754	3.7700	-0.265925	1.577277	-0.542373	-0.216964	1.544929	-0.780615	-0.213682	1.541363	-0.339727	-0.125458	1.509907	-0.558455	-0.133978	1.051127	-0.440154	-0.137494	1.046597	-0.668007	-0.194453	1.112850	-0.388995	-0.215485	1.112362	-0.719844	-0.319587	1.080642	-0.491722	-0.323865	1.079614	-0.601288	-0.327680	1.085375	-0.545519	-0.184541	0.851197	-0.352797	-0.159392	0.797969	-0.339887	-0.099362	0.818893	-0.352598	-0.117220	0.876203	-0.366920	-0.246059	0.314613	-0.340812	-0.265765	0.277521	-0.351034	-0.208317	0.256650	-0.351791	-0.193822	0.293575	-0.345530	-0.380676	0.064003	-0.414354	-0.202278	0.024385	-0.333076	-0.155657	0.042932	-0.426419	-0.122935	0.030692	-0.424295	-0.180637	0.800389	-0.761295	-0.148586	0.748447	-0.771601	-0.090176	0.777060	-0.766809	-0.114451	0.830473	-0.756655	-0.261308	0.300696	-0.761550	-0.280055	0.265894	-0.753626	-0.222150	0.241014	-0.755696	-0.210291	0.283550	-0.764763	-0.387928	0.067099	-0.691261	-0.212853	0.025423	-0.784814	-0.165916	0.042665	-0.705975	-0.130188	0.030564	-0.709744	
755	3.7750	-0.265796	1.578446	-0.542391	-0.216878	1.546358	-0.780687	-0.213357	1.542667	-0.339734	-0.125275	1.511012	-0.558566	-0.133256	1.052278	-0.440147	-0.136930	1.047768	-0.667963	-0.193852	1.114057	-0.388881	-0.215202	1.113315	-0.719587	-0.318920	1.081817	-0.491460	-0.323213	1.080757	-0.601117	-0.327051	1.086476	-0.545304	-0.184536	0.852214	-0.352727	-0.159693	0.798866	-0.339798	-0.099534	0.819447	-0.352484	-0.117073	0.876862	-0.366810	-0.246850	0.314583	-0.340840	-0.266549	0.277436	-0.351094	-0.208968	0.256822	-0.351709	-0.194620	0.293790	-0.345478	-0.380699	0.063821	-0.414294	-0.202276	0.024362	-0.333030	-0.155719	0.042934	-0.426397	-0.123006	0.030687	-0.424289	-0.180750	0.801391	-0.761096	-0.148863	0.749356	-0.771389	-0.090370	0.777748	-0.766529	-0.114455	0.831249	-0.756383	-0.262099	0.300742	-0.761600	-0.280747	0.265867	-0.753695	-0.222753	0.241170	-0.755690	-0.211026	0.283753	-0.764728	-0.388103	0.066872	-0.691517	-0.212860	0.025410	-0.784883	-0.166024	0.042664	-0.705981	-0.130291	0.030552	-0.709747	
756	3.7800	-0.265679	1.579961	-0.542423	-0.216875	1.548139	-0.780764	-0.213081	1.544343	-0.339754	-0.125109	1.512507	-0.558687	-0.132440	1.053777	-0.440143	-0.136238	1.049260	-0.667897	-0.193098	1.115624	-0.388781	-0.214927	1.114922	-0.719478	-0.318140	1.083344	-0.491219	-0.322405	1.082233	-0.600938	-0.326306	1.087921	-0.545111	-0.184665	0.853481	-0.352701	-0.160186	0.799978	-0.339760	-0.099871	0.820184	-0.352334	-0.117029	0.877712	-0.366654	-0.247967	0.314531	-0.340998	-0.267539	0.277348	-0.351248	-0.209837	0.257065	-0.351701	-0.195684	0.294112	-0.345505	-0.380715	0.063600	-0.414308	-0.202287	0.024345	-0.333011	-0.155783	0.042933	-0.426387	-0.123082	0.030684	-0.424281	-0.181038	0.802654	-0.760841	-0.149403	0.750483	-0.771148	-0.090775	0.778574	-0.766333	-0.114595	0.832172	-0.756188	-0.263118	0.300874	-0.761647	-0.281632	0.265907	-0.753765	-0.223531	0.241450	-0.755692	-0.211972	0.284077	-0.764702	-0.388285	0.066672	-0.691772	-0.212872	0.025395	-0.784950	-0.166142	0.042663	-0.705986	-0.130406	0.030537	-0.709745	
757	3.7850	-0.265583	1.581804	-0.542470	-0.216953	1.550264	-0.780847	-0.212853	1.546384	-0.339786	-0.124967	1.514389	-0.558818	-0.131532	1.055607	-0.440139	-0.135415	1.051065	-0.667817	-0.192210	1.117564	-0.388698	-0.214189	1.116633	-0.719296	-0.317268	1.085212	-0.491000	-0.321606	1.084053	-0.600732	-0.325467	1.089699	-0.544939	-0.184910	0.854999	-0.352718	-0.160841	0.801331	-0.339762	-0.100354	0.821126	-0.352181	-0.117077	0.878774	-0.366482	-0.249406	0.314685	-0.341109	-0.268698	0.277374	-0.351436	-0.210909	0.257433	-0.351755	-0.196973	0.294584	-0.345570	-0.380736	0.063408	-0.414408	-0.202305	0.024335	-0.333015	-0.155843	0.042930	-0.426388	-0.123159	0.030682	-0.424274	-0.181484	0.804186	-0.760541	-0.150181	0.751832	-0.770878	-0.091379	0.779561	-0.766219	-0.114867	0.833294	-0.756069	-0.264334	0.301134	-0.761664	-0.282682	0.266065	-0.753814	-0.224462	0.241895	-0.755693	-0.213105	0.284563	-0.764677	-0.388452	0.066533	-0.692015	-0.212884	0.025381	-0.785006	-0.166257	0.042664	-0.705988	-0.130522	0.030520	-0.709737	
758	3.7900	-0.265518	1.583957	-0.542530	-0.217100	1.552714	-0.780934	-0.212672	1.548781	-0.339837	-0.124855	1.516654	-0.558960	-0.130563	1.057766	-0.440123	-0.134467	1.053168	-0.667711	-0.191207	1.119879	-0.388634	-0.213406	1.118593	-0.719160	-0.316318	1.087404	-0.490801	-0.320621	1.086154	-0.600718	-0.324550	1.091801	-0.544787	-0.185244	0.856777	-0.352770	-0.161617	0.802943	-0.339824	-0.100954	0.822296	-0.352047	-0.117206	0.880076	-0.366321	-0.251097	0.315090	-0.341173	-0.270005	0.277599	-0.351616	-0.212144	0.258006	-0.351854	-0.198469	0.295256	-0.345672	-0.380755	0.063295	-0.414534	-0.202327	0.024332	-0.333043	-0.155891	0.042910	-0.426412	-0.123233	0.030665	-0.424278	-0.182071	0.805991	-0.760199	-0.151167	0.753419	-0.770579	-0.092160	0.780734	-0.766167	-0.115265	0.834630	-0.756004	-0.265719	0.301560	-0.761642	-0.283878	0.266379	-0.753830	-0.225530	0.242528	-0.755690	-0.214397	0.285249	-0.764644	-0.388593	0.066482	-0.692240	-0.212894	0.025368	-0.785047	-0.166359	0.042667	-0.705989	-0.130633	0.030503	-0.709721	
